<?xml version="1.0" encoding="UTF-8"?>
<svg id="SVGRoot" version="1.1" viewBox="0 0 120 60" xmlns="http://www.w3.org/2000/svg" xmlns:cc="http://creativecommons.org/ns#" xmlns:dc="http://purl.org/dc/elements/1.1/" xmlns:rdf="http://www.w3.org/1999/02/22-rdf-syntax-ns#">
 <defs>
  <filter id="filter882" x="-1.376e-6" y="-1.064e-6" width="1" height="1" style="color-interpolation-filters:sRGB">
   <feGaussianBlur stdDeviation="1.0429722e-05"/>
  </filter>
 </defs>
 <metadata>
  <rdf:RDF>
   <cc:Work rdf:about="">
    <dc:format>image/svg+xml</dc:format>
    <dc:type rdf:resource="http://purl.org/dc/dcmitype/StillImage"/>
    <dc:title/>
   </cc:Work>
  </rdf:RDF>
 </metadata>
 <rect width="120" height="60" style="fill:#ececec"/>
 <g transform="scale(.9208 1.086)" style="fill:#808080" aria-label="Logo">
  <path d="m55.2 33.33h10.2v3.526h-14.8v-22.92h4.597z" style="fill:#808080;stroke-width:1.343"/>
  <path d="m66.96 28.18q0-3.81 2.125-6.234 2.125-2.44 5.888-2.44 3.778 0 5.919 2.424t2.141 6.25v0.3306q0 3.841-2.141 6.265-2.125 2.409-5.888 2.409-3.778 0-5.919-2.409-2.125-2.424-2.125-6.265zm4.581 0.3306q0 2.33 0.8186 3.747 0.8186 1.401 2.645 1.401 1.779 0 2.597-1.417 0.8343-1.417 0.8343-3.731v-0.3306q0-2.267-0.8343-3.699t-2.629-1.433q-1.779 0-2.613 1.448-0.8186 1.433-0.8186 3.684z" style="fill:#808080;stroke-width:1.343"/>
  <path d="m85.15 28.48q0-4.03 1.747-6.502 1.763-2.472 4.927-2.472 1.433 0 2.519 0.6454 1.086 0.6454 1.858 1.842l0.3621-2.172h3.967v16.95q0 3.322-2.188 5.132-2.172 1.826-6.061 1.826-1.291 0-2.739-0.3621-1.448-0.3463-2.676-0.9603l0.8501-3.432q1.055 0.5038 2.141 0.7556 1.102 0.2676 2.393 0.2676 1.889 0 2.771-0.7871 0.8973-0.7871 0.8973-2.456v-1.543q-0.7556 0.9603-1.779 1.464-1.023 0.5038-2.346 0.5038-3.133 0-4.896-2.298-1.747-2.314-1.747-6.077zm4.597 0.3306q0 2.235 0.7556 3.526 0.7556 1.275 2.456 1.275 1.055 0 1.779-0.3778 0.7399-0.3936 1.181-1.133v-7.399q-0.4408-0.7714-1.181-1.196-0.7242-0.425-1.747-0.425-1.684 0-2.472 1.496-0.7714 1.496-0.7714 3.904z" style="fill:#808080;stroke-width:1.343"/>
  <path d="m103.4 28.18q0-3.81 2.125-6.234 2.125-2.44 5.888-2.44 3.778 0 5.919 2.424t2.141 6.25v0.3306q0 3.841-2.141 6.265-2.125 2.409-5.888 2.409-3.778 0-5.919-2.409-2.125-2.424-2.125-6.265zm4.581 0.3306q0 2.33 0.8186 3.747 0.8186 1.401 2.645 1.401 1.779 0 2.597-1.417 0.8344-1.417 0.8344-3.731v-0.3306q0-2.267-0.8344-3.699-0.8343-1.433-2.629-1.433-1.779 0-2.613 1.448-0.8186 1.433-0.8186 3.684z" style="fill:#808080;stroke-width:1.343"/>
 </g>
 <g style="fill-rule:evenodd">
  <path d="m21.81 22.81 18.19-6.341v23.53l-18.19-1.189z" points="40,16.470588 40,40 21.810526,38.811146 21.810526,22.811146 " style="fill-rule:evenodd;fill:#7e8080;filter:url(#filter882)"/>
  <path d="m10 22.25v16.67l11.81-0.1053v-16z" points="9.9999992,38.916409 21.810526,38.811146 21.810526,22.811146 9.9999992,22.249742 " style="fill-rule:evenodd;fill:#353564"/>
  <path d="m10 38.92 13.42 1.316 16.58-0.2322-18.19-1.189z" points="23.421052,40.232198 40,40 21.810526,38.811146 9.9999992,38.916409 " style="fill-rule:evenodd;fill:#afafde"/>
  <path d="m10 22.25 13.42-7.018 16.58 1.238-18.19 6.341z" points="23.421052,15.232198 40,16.470588 21.810526,22.811146 9.9999992,22.249742 " style="fill-rule:evenodd;fill:#4d4d9f"/>
  <path d="m23.42 15.23v25l16.58-0.2322v-23.53z" points="23.421052,40.232198 40,40 40,16.470588 23.421052,15.232198 " style="fill-rule:evenodd;fill:#d7d7ff"/>
  <path d="m10 22.25 13.42-7.018v25l-13.42-1.316z" points="23.421052,15.232198 23.421052,40.232198 9.9999992,38.916409 9.9999992,22.249742 " style="fill-rule:evenodd;fill:#8686bf"/>
 </g>
</svg>
